<?xml version="1.0" encoding="iso-8859-1"?>
<!-- Generator: Adobe Illustrator 19.0.0, SVG Export Plug-In . SVG Version: 6.00 Build 0)  -->
<svg version="1.1" id="Capa_1" xmlns="http://www.w3.org/2000/svg" xmlns:xlink="http://www.w3.org/1999/xlink" x="0px" y="0px"
	 viewBox="0 0 511.999 511.999" style="enable-background:new 0 0 511.999 511.999;" xml:space="preserve">
<linearGradient id="SVGID_1_" gradientUnits="userSpaceOnUse" x1="31.6116" y1="258.0068" x2="480.3756" y2="258.0068" gradientTransform="matrix(1 0 0 -1 9.579752e-004 514.0114)">
	<stop  offset="0" style="stop-color:#80D8FF"/>
	<stop  offset="1" style="stop-color:#EA80FC"/>
</linearGradient>
<path style="fill:url(#SVGID_1_);" d="M480.386,137.992c0-7.146-3.812-13.748-10-17.32L266,2.669c-6.218-3.593-13.9-3.525-20,0
	L41.613,120.672c-6.188,3.572-10,10.175-10,17.32v236.005c0,7.274,3.976,13.841,10,17.32l204.386,118.002
	c6.187,3.573,13.811,3.573,20,0l204.186-117.886c6.076-3.411,10.2-9.712,10.2-17.436V137.992z M440.385,339.355L276,244.447V54.631
	l164.385,94.908V339.355z M235.999,54.631v189.816L71.614,339.355V149.538L235.999,54.631z M256,468.903L91.614,373.997L256,279.089
	l164.385,94.908L256,468.903z"/>
<g>
</g>
<g>
</g>
<g>
</g>
<g>
</g>
<g>
</g>
<g>
</g>
<g>
</g>
<g>
</g>
<g>
</g>
<g>
</g>
<g>
</g>
<g>
</g>
<g>
</g>
<g>
</g>
<g>
</g>
</svg>
