<svg height="512pt" viewBox="0 -38 512 512" width="512pt" xmlns="http://www.w3.org/2000/svg" xmlns:xlink="http://www.w3.org/1999/xlink"><linearGradient id="a" gradientUnits="userSpaceOnUse" x1="0" x2="512" y1="218" y2="218"><stop offset="0" stop-color="#80d8ff"/><stop offset="1" stop-color="#ea80fc"/></linearGradient><path d="m492 0h-472c-11.046875 0-20 8.953125-20 20v396c0 11.046875 8.953125 20 20 20h472c11.046875 0 20-8.953125 20-20 0-10.683594 0-385.390625 0-396 0-11.046875-8.953125-20-20-20zm-20 396h-432v-260h432zm0-300h-432v-56h432zm-376 254h120c11.046875 0 20-8.953125 20-20v-128c0-11.046875-8.953125-20-20-20h-120c-11.046875 0-20 8.953125-20 20v128c0 11.046875 8.953125 20 20 20zm20-128h80v88h-80zm160 44c0-11.046875 8.953125-20 20-20h120c11.046875 0 20 8.953125 20 20s-8.953125 20-20 20h-120c-11.046875 0-20-8.953125-20-20zm0 0" fill="url(#a)"/></svg>