<?xml version="1.0" encoding="iso-8859-1"?>
<!-- Generator: Adobe Illustrator 19.0.0, SVG Export Plug-In . SVG Version: 6.00 Build 0)  -->
<svg version="1.1" id="Capa_1" xmlns="http://www.w3.org/2000/svg" xmlns:xlink="http://www.w3.org/1999/xlink" x="0px" y="0px"
	 viewBox="0 0 512 512" style="enable-background:new 0 0 512 512;" xml:space="preserve">
<linearGradient id="SVGID_1_" gradientUnits="userSpaceOnUse" x1="0" y1="258" x2="512" y2="258" gradientTransform="matrix(1 0 0 -1 0 514)">
	<stop  offset="0" style="stop-color:#80D8FF"/>
	<stop  offset="1" style="stop-color:#EA80FC"/>
</linearGradient>
<path style="fill:url(#SVGID_1_);" d="M344.652,132.596c0,11.046-8.954,20-20,20H111.348c-11.046,0-20-8.954-20-20s8.954-20,20-20
	h213.305C335.698,112.596,344.652,121.55,344.652,132.596z M324.652,219.782H111.348c-11.046,0-20,8.954-20,20s8.954,20,20,20
	h213.305c11.046,0,20-8.954,20-20S335.698,219.782,324.652,219.782z M512,96v332.237c0,11.046-8.954,20-20,20h-51.785L405.83,502.68
	c-3.665,5.802-10.048,9.32-16.91,9.32s-13.245-3.519-16.91-9.32l-34.385-54.442H193.08c-11.046,0-20-8.954-20-20s8.954-20,20-20
	h155.568c6.862,0,13.245,3.519,16.91,9.32l23.361,36.989l23.361-36.989c3.665-5.802,10.048-9.32,16.91-9.32H472V116h-36v236.237
	c0,11.046-8.954,20-20,20H174.375L139.99,426.68c-3.664,5.802-10.047,9.32-16.91,9.32s-13.245-3.519-16.91-9.32l-34.385-54.442H20
	c-11.046,0-20-8.954-20-20V20C0,8.954,8.954,0,20,0h396c11.046,0,20,8.954,20,20v56h56C503.046,76,512,84.954,512,96z M396,40H40
	v292.237h42.809c6.862,0,13.245,3.519,16.91,9.32l23.362,36.989l23.361-36.989c3.664-5.802,10.047-9.32,16.91-9.32H396V40z"/>
<g>
</g>
<g>
</g>
<g>
</g>
<g>
</g>
<g>
</g>
<g>
</g>
<g>
</g>
<g>
</g>
<g>
</g>
<g>
</g>
<g>
</g>
<g>
</g>
<g>
</g>
<g>
</g>
<g>
</g>
</svg>
