<?xml version="1.0" encoding="iso-8859-1"?>
<!-- Generator: Adobe Illustrator 19.0.0, SVG Export Plug-In . SVG Version: 6.00 Build 0)  -->
<svg version="1.1" id="Capa_1" xmlns="http://www.w3.org/2000/svg" xmlns:xlink="http://www.w3.org/1999/xlink" x="0px" y="0px"
	 viewBox="0 0 512 512" style="enable-background:new 0 0 512 512;" xml:space="preserve">
<linearGradient id="SVGID_1_" gradientUnits="userSpaceOnUse" x1="0" y1="257.9986" x2="512" y2="257.9986" gradientTransform="matrix(1 0 0 -1 0 513.9986)">
	<stop  offset="0" style="stop-color:#80D8FF"/>
	<stop  offset="1" style="stop-color:#EA80FC"/>
</linearGradient>
<path style="fill:url(#SVGID_1_);" d="M312.31,309.681c5.518,9.569,2.233,21.799-7.336,27.316l-38.983,22.478
	c-6.182,3.565-13.797,3.566-19.98,0l-38.983-22.478c-9.569-5.518-12.854-17.748-7.336-27.316
	c5.519-9.568,17.747-12.854,27.316-7.336L256,319.063l28.993-16.718C294.561,296.827,306.792,300.111,312.31,309.681z
	 M10.01,223.395l38.983,22.479c9.61,5.543,21.823,2.191,27.316-7.335c5.518-9.569,2.233-21.799-7.336-27.316l-8.935-5.152
	l8.936-5.152c9.568-5.517,12.854-17.747,7.336-27.316c-5.517-9.569-17.745-12.854-27.316-7.336L10.01,188.743
	C3.816,192.314,0,198.919,0,206.068S3.815,219.823,10.01,223.395z M123.468,169.499l49.044-28.277
	c9.568-5.517,12.854-17.747,7.336-27.316s-17.745-12.854-27.316-7.336l-49.044,28.277c-9.568,5.517-12.854,17.747-7.336,27.316
	C101.642,171.685,113.854,175.041,123.468,169.499z M227.006,109.802L256,93.085l28.994,16.717
	c9.619,5.547,21.83,2.181,27.316-7.336c5.518-9.569,2.232-21.799-7.336-27.316L265.99,52.673c-6.184-3.565-13.797-3.565-19.98,0
	L207.026,75.15c-9.568,5.517-12.854,17.747-7.336,27.316C205.205,112.035,217.435,115.319,227.006,109.802z M443.025,200.918
	l8.936,5.152l-8.935,5.152c-9.569,5.518-12.854,17.748-7.336,27.316c5.5,9.538,17.721,12.87,27.316,7.335l38.983-22.479
	c6.194-3.571,10.01-10.177,10.01-17.326s-3.816-13.755-10.01-17.326l-38.984-22.477c-9.569-5.518-21.8-2.233-27.316,7.336
	C430.172,183.171,433.457,195.401,443.025,200.918z M339.488,141.221l49.044,28.277c9.622,5.548,21.831,2.18,27.316-7.336
	c5.518-9.569,2.232-21.799-7.336-27.316l-49.044-28.277c-9.568-5.518-21.8-2.233-27.316,7.336
	C326.635,123.474,329.92,135.704,339.488,141.221z M501.99,288.603l-86.59-49.93c-6.182-3.566-13.797-3.565-19.98,0l-55.933,32.25
	c-9.569,5.518-12.854,17.748-7.336,27.316c5.517,9.568,17.747,12.853,27.316,7.336l45.942-26.49l46.551,26.843L256,418.913
	L60.039,305.928l46.551-26.843l45.942,26.49c9.569,5.518,21.8,2.232,27.316-7.336c5.518-9.569,2.233-21.799-7.336-27.316
	l-55.933-32.25c-6.184-3.565-13.799-3.565-19.98,0l-86.59,49.93C3.815,292.175,0,298.78,0,305.93s3.816,13.755,10.01,17.326
	l236,136.07c6.182,3.565,13.797,3.566,19.98,0l236-136.07c6.193-3.571,10.01-10.176,10.01-17.326S508.185,292.175,501.99,288.603z"
	/>
<g>
</g>
<g>
</g>
<g>
</g>
<g>
</g>
<g>
</g>
<g>
</g>
<g>
</g>
<g>
</g>
<g>
</g>
<g>
</g>
<g>
</g>
<g>
</g>
<g>
</g>
<g>
</g>
<g>
</g>
</svg>
