<?xml version="1.0" encoding="iso-8859-1"?>
<!-- Generator: Adobe Illustrator 19.0.0, SVG Export Plug-In . SVG Version: 6.00 Build 0)  -->
<svg version="1.1" id="Capa_1" xmlns="http://www.w3.org/2000/svg" xmlns:xlink="http://www.w3.org/1999/xlink" x="0px" y="0px"
	 viewBox="0 0 512.001 512.001" style="enable-background:new 0 0 512.001 512.001;" xml:space="preserve">
<linearGradient id="SVGID_1_" gradientUnits="userSpaceOnUse" x1="0" y1="258.0006" x2="512.0007" y2="258.0006" gradientTransform="matrix(1 0 0 -1 0 514.0009)">
	<stop  offset="0" style="stop-color:#80D8FF"/>
	<stop  offset="1" style="stop-color:#EA80FC"/>
</linearGradient>
<path style="fill:url(#SVGID_1_);" d="M256.001,386c38.598,0,70-31.402,70-70s-31.402-70-70-70s-70,31.402-70,70
	S217.403,386,256.001,386z M256.001,286c16.542,0,30,13.458,30,30s-13.458,30-30,30s-30-13.458-30-30S239.459,286,256.001,286z
	 M508.883,481.277l-93.081-146.551c3.512-149.741-72.463-276.166-148.07-330.924c-6.999-5.07-16.464-5.069-23.464-0.001
	c-73.175,53.026-151.575,177.67-148.05,330.893l-93.1,146.583c-3.912,6.159-4.16,13.96-0.646,20.354
	C5.987,508.026,12.705,512,20.001,512c24.643,0,446.772,0,472,0c7.296,0,14.014-3.974,17.528-10.368
	C513.043,495.237,512.795,487.436,508.883,481.277z M256.025,45.978c73.731,65.96,124.424,171.887,119.564,294.742
	c-1.728,44.429-10.384,88.687-23.752,131.279H160.164c-13.415-42.74-22.131-87.437-23.787-132.026
	c-0.005-0.145-0.015-0.29-0.02-0.435C131.895,217.399,182.268,112.1,256.025,45.978z M56.397,472l45.735-72.008
	c3.79,24.169,9.492,48.979,16.218,72.008H56.397z M393.652,472c6.93-23.72,12.479-48.163,16.218-72.008L455.605,472H393.652z"/>
<g>
</g>
<g>
</g>
<g>
</g>
<g>
</g>
<g>
</g>
<g>
</g>
<g>
</g>
<g>
</g>
<g>
</g>
<g>
</g>
<g>
</g>
<g>
</g>
<g>
</g>
<g>
</g>
<g>
</g>
</svg>
