<?xml version="1.0" encoding="iso-8859-1"?>
<!-- Generator: Adobe Illustrator 19.0.0, SVG Export Plug-In . SVG Version: 6.00 Build 0)  -->
<svg version="1.1" id="Capa_1" xmlns="http://www.w3.org/2000/svg" xmlns:xlink="http://www.w3.org/1999/xlink" x="0px" y="0px"
	 viewBox="0 0 512 512" style="enable-background:new 0 0 512 512;" xml:space="preserve">
<linearGradient id="SVGID_1_" gradientUnits="userSpaceOnUse" x1="0" y1="258" x2="512" y2="258" gradientTransform="matrix(1 0 0 -1 0 514)">
	<stop  offset="0" style="stop-color:#80D8FF"/>
	<stop  offset="1" style="stop-color:#EA80FC"/>
</linearGradient>
<path style="fill:url(#SVGID_1_);" d="M492,268H316c-11.046,0-20,8.954-20,20c0,22.056-17.944,40-40,40s-40-17.944-40-40
	c0-11.046-8.954-20-20-20H20c-11.046,0-20,8.954-20,20v176c0,11.046,8.954,20,20,20h472c11.046,0,20-8.954,20-20V288
	C512,276.954,503.046,268,492,268z M472,444H40V308h138.531c8.903,34.466,40.26,60,77.469,60s68.566-25.534,77.469-60H472V444z
	 M118,188c0-11.046,8.954-20,20-20h236c11.046,0,20,8.954,20,20s-8.954,20-20,20H138C126.954,208,118,199.046,118,188z M118,118
	c0-11.046,8.954-20,20-20h236c11.046,0,20,8.954,20,20s-8.954,20-20,20H138C126.954,138,118,129.046,118,118z M118,48
	c0-11.046,8.954-20,20-20h236c11.046,0,20,8.954,20,20s-8.954,20-20,20H138C126.954,68,118,59.046,118,48z"/>
<g>
</g>
<g>
</g>
<g>
</g>
<g>
</g>
<g>
</g>
<g>
</g>
<g>
</g>
<g>
</g>
<g>
</g>
<g>
</g>
<g>
</g>
<g>
</g>
<g>
</g>
<g>
</g>
<g>
</g>
</svg>
