<svg height="512pt" viewBox="0 0 512.0015 512" width="512pt" xmlns="http://www.w3.org/2000/svg" xmlns:xlink="http://www.w3.org/1999/xlink"><linearGradient id="a" gradientUnits="userSpaceOnUse" x1=".00025" x2="512.00025" y1="256.001" y2="256.001"><stop offset="0" stop-color="#80d8ff"/><stop offset="1" stop-color="#ea80fc"/></linearGradient><path d="m409.597656 381.3125c34.945313-38.210938 54.664063-88.425781 54.664063-140.609375 0-46.324219-15.210938-89.15625-40.890625-123.789063l82.773437-82.769531c7.808594-7.8125 7.808594-20.476562 0-28.285156-7.8125-7.808594-20.476562-7.8125-28.285156 0l-81.308594 81.304687c-37.070312-33.960937-86.429687-54.71875-140.550781-54.71875s-103.480469 20.757813-140.550781 54.71875l-81.308594-81.304687c-7.808594-7.8125-20.472656-7.8125-28.28125 0-7.8125 7.8125-7.8125 20.476563 0 28.285156l82.773437 82.769531c-25.679687 34.632813-40.890624 77.464844-40.890624 123.789063 0 52.183594 19.714843 102.398437 54.660156 140.609375l-96.542969 96.546875c-7.8125 7.808594-7.8125 20.472656 0 28.285156 7.808594 7.808594 20.472656 7.808594 28.28125 0l75.960937-75.960937v29.371094c0 11.046874 8.953126 20 20 20h251.796876c11.046874 0 20-8.953126 20-20v-29.371094l75.957031 75.960937c7.8125 7.808594 20.472656 7.808594 28.285156 0 7.8125-7.8125 7.8125-20.476562 0-28.285156zm-41.078125-15.511719c-6.417969 5.773438-8.375 13.289063-6.621093 20.332031v53.425782h-43.726563v-58.277344c0-11.046875-8.953125-20-20-20s-20 8.953125-20 20v58.273438h-43.726563v-58.273438c0-11.046875-8.953124-20-20-20-11.046874 0-20 8.953125-20 20v58.273438h-44.34375v-53.421876c1.734376-6.960937-.136718-14.496093-6.621093-20.335937-35.421875-31.886719-55.738281-77.480469-55.738281-125.09375 0-92.777344 75.480468-168.257813 168.257812-168.257813s168.257812 75.480469 168.257812 168.257813c0 47.617187-20.316406 93.210937-55.738281 125.097656zm0 0" fill="url(#a)"/></svg>