<svg height="512pt" viewBox="0 0 512.00025 512" width="512pt" xmlns="http://www.w3.org/2000/svg" xmlns:xlink="http://www.w3.org/1999/xlink"><linearGradient id="a" gradientUnits="userSpaceOnUse" x1=".000251" x2="512.000226" y1="255.999475" y2="255.999475"><stop offset="0" stop-color="#80d8ff"/><stop offset="1" stop-color="#ea80fc"/></linearGradient><path d="m500.960938 238.113281-82.226563-41.113281 82.226563-41.113281c14.710937-7.351563 14.726562-28.414063 0-35.773438l-236.015626-118c-5.632812-2.816406-12.257812-2.816406-17.890624 0l-236.015626 118c-14.710937 7.351563-14.726562 28.410157 0 35.773438l82.226563 41.113281-82.226563 41.109375c-14.710937 7.355469-14.726562 28.414063 0 35.777344l82.226563 41.113281-82.226563 41.109375c-14.710937 7.355469-14.726562 28.414063 0 35.777344l236.015626 118c5.628906 2.816406 12.257812 2.816406 17.890624 0l236.015626-118c14.710937-7.355469 14.726562-28.414063 0-35.777344l-82.226563-41.109375 82.226563-41.113281c14.710937-7.351563 14.726562-28.414063 0-35.773438zm-436.253907-100.113281 191.292969-95.640625 191.292969 95.640625c-8.671875 4.335938-138.9375 69.464844-191.292969 95.636719-11.285156-5.640625-184.5-92.242188-191.292969-95.636719zm382.585938 236-191.292969 95.636719-191.292969-95.636719 73.285157-36.640625 109.0625 54.527344c5.628906 2.816406 12.257812 2.816406 17.890624 0l109.0625-54.527344zm-191.292969-22.363281-191.292969-95.636719 73.285157-36.640625 109.0625 54.527344c.351562.175781.707031.34375 1.066406.496093 5.03125 2.15625 10.726562 2.15625 15.757812 0 .359375-.152343.714844-.320312 1.066406-.496093l109.0625-54.527344 73.285157 36.640625zm0 0" fill="url(#a)"/></svg>