<?xml version="1.0" encoding="iso-8859-1"?>
<!-- Generator: Adobe Illustrator 19.0.0, SVG Export Plug-In . SVG Version: 6.00 Build 0)  -->
<svg version="1.1" id="Capa_1" xmlns="http://www.w3.org/2000/svg" xmlns:xlink="http://www.w3.org/1999/xlink" x="0px" y="0px"
	 viewBox="0 0 512 512" style="enable-background:new 0 0 512 512;" xml:space="preserve">
<linearGradient id="SVGID_1_" gradientUnits="userSpaceOnUse" x1="66" y1="258" x2="446" y2="258" gradientTransform="matrix(1 0 0 -1 0 514)">
	<stop  offset="0" style="stop-color:#80D8FF"/>
	<stop  offset="1" style="stop-color:#EA80FC"/>
</linearGradient>
<path style="fill:url(#SVGID_1_);" d="M445.378,487.052l-18.783-73.564V116c0-11.046-8.954-20-20-20H336V80
	c0-44.112-35.888-80-80-80s-80,35.888-80,80v16h-70.595c-11.046,0-20,8.954-20,20v297.487l-18.783,73.564
	c-1.528,5.984-0.206,12.339,3.583,17.217S79.823,512,86,512h340c6.177,0,12.006-2.854,15.795-7.731S446.906,493.036,445.378,487.052
	z M216,80c0-22.056,17.944-40,40-40s40,17.944,40,40v16h-80V80z M111.748,472l13.035-51.052c0.413-1.617,0.622-3.279,0.622-4.948
	V136H176v44c0,11.046,8.954,20,20,20s20-8.954,20-20v-44h80v44c0,11.046,8.954,20,20,20s20-8.954,20-20v-44h50.595v280
	c0,1.669,0.209,3.331,0.622,4.948L400.252,472H111.748z"/>
<g>
</g>
<g>
</g>
<g>
</g>
<g>
</g>
<g>
</g>
<g>
</g>
<g>
</g>
<g>
</g>
<g>
</g>
<g>
</g>
<g>
</g>
<g>
</g>
<g>
</g>
<g>
</g>
<g>
</g>
</svg>
