<svg height="512pt" viewBox="-38 0 512 512" width="512pt" xmlns="http://www.w3.org/2000/svg" xmlns:xlink="http://www.w3.org/1999/xlink"><linearGradient id="a" gradientUnits="userSpaceOnUse" x1="0" x2="436" y1="256" y2="256"><stop offset="0" stop-color="#80d8ff"/><stop offset="1" stop-color="#ea80fc"/></linearGradient><path d="m416 396.136719h-55.835938v-376.136719c0-11.046875-8.953124-20-20-20h-320.164062c-11.046875 0-20 8.953125-20 20v396.136719c0 52.859375 42.992188 95.863281 95.835938 95.863281h244.328124c52.84375 0 95.835938-43.003906 95.835938-95.863281 0-11.042969-8.953125-20-20-20zm-264.328125 20c0 30.804687-25.046875 55.863281-55.835937 55.863281-30.789063 0-55.835938-25.058594-55.835938-55.863281v-376.136719h280.164062v356.136719h-148.492187c-11.046875 0-20 8.957031-20 20zm188.492187 55.863281h-166.488281c7.59375-10.558594 13.097657-22.714844 15.898438-35.863281h202.726562c-8.058593 20.953125-28.390625 35.863281-52.136719 35.863281zm-50.082031-353c0 11.046875-8.953125 20-20 20h-180c-11.046875 0-20-8.953125-20-20s8.953125-20 20-20h180c11.046875 0 20 8.953125 20 20zm0 99c0 11.046875-8.953125 20-20 20h-180c-11.046875 0-20-8.953125-20-20s8.953125-20 20-20h180c11.046875 0 20 8.953125 20 20zm0 99c0 11.046875-8.953125 20-20 20h-180c-11.046875 0-20-8.953125-20-20s8.953125-20 20-20h180c11.046875 0 20 8.953125 20 20zm0 0" fill="url(#a)"/></svg>