<?xml version="1.0" encoding="iso-8859-1"?>
<!-- Generator: Adobe Illustrator 19.0.0, SVG Export Plug-In . SVG Version: 6.00 Build 0)  -->
<svg version="1.1" id="Capa_1" xmlns="http://www.w3.org/2000/svg" xmlns:xlink="http://www.w3.org/1999/xlink" x="0px" y="0px"
	 viewBox="0 0 512 512" style="enable-background:new 0 0 512 512;" xml:space="preserve">
<linearGradient id="SVGID_1_" gradientUnits="userSpaceOnUse" x1="50.0854" y1="258" x2="461.9146" y2="258" gradientTransform="matrix(1 0 0 -1 0 514)">
	<stop  offset="0" style="stop-color:#80D8FF"/>
	<stop  offset="1" style="stop-color:#EA80FC"/>
</linearGradient>
<path style="fill:url(#SVGID_1_);" d="M412.307,512H81.598c-9.302,0-17.375-6.413-19.481-15.473
	C43.286,415.488,46.648,327.5,71.585,248.771c22.538-71.194,25.786-150.872,9.144-224.354C77.898,11.918,87.413,0,100.235,0h330.719
	c9.344,0,17.442,6.469,19.506,15.583c18.188,80.306,14.625,167.409-10.032,245.266v0.001
	c-22.797,71.971-25.864,152.455-8.639,226.626C434.699,500.008,425.17,512,412.307,512z M97.795,472H387.84
	c-12.952-74.05-7.982-152.394,14.454-223.229c20.96-66.184,25.242-139.71,12.368-208.771H124.569
	c12.428,73.307,7.319,150.816-14.85,220.846C88.493,327.86,84.366,402.227,97.795,472z"/>
<g>
</g>
<g>
</g>
<g>
</g>
<g>
</g>
<g>
</g>
<g>
</g>
<g>
</g>
<g>
</g>
<g>
</g>
<g>
</g>
<g>
</g>
<g>
</g>
<g>
</g>
<g>
</g>
<g>
</g>
</svg>
