<?xml version="1.0" encoding="iso-8859-1"?>
<!-- Generator: Adobe Illustrator 19.0.0, SVG Export Plug-In . SVG Version: 6.00 Build 0)  -->
<svg version="1.1" id="Capa_1" xmlns="http://www.w3.org/2000/svg" xmlns:xlink="http://www.w3.org/1999/xlink" x="0px" y="0px"
	 viewBox="0 0 512 512" style="enable-background:new 0 0 512 512;" xml:space="preserve">
<linearGradient id="SVGID_1_" gradientUnits="userSpaceOnUse" x1="0" y1="258" x2="512" y2="258" gradientTransform="matrix(1 0 0 -1 0 514)">
	<stop  offset="0" style="stop-color:#80D8FF"/>
	<stop  offset="1" style="stop-color:#EA80FC"/>
</linearGradient>
<path style="fill:url(#SVGID_1_);" d="M220,512H20c-11.046,0-20-8.954-20-20V292c0-11.046,8.954-20,20-20h200
	c11.046,0,20,8.954,20,20v200C240,503.046,231.046,512,220,512z M40,472h160V312H40V472z M492,240H292c-11.046,0-20-8.954-20-20V20
	c0-11.046,8.954-20,20-20h200c11.046,0,20,8.954,20,20v200C512,231.046,503.046,240,492,240z M312,200h160V40H312V200z M40,176V40
	h84.721l-12.262,11.281c-8.129,7.479-8.656,20.131-1.178,28.26c7.479,8.13,20.132,8.658,28.26,1.178l50-46
	c6.065-5.58,8.086-14.309,5.092-21.986C191.639,5.055,184.241,0,176,0H20C8.954,0,0,8.954,0,20v156c0,11.046,8.954,20,20,20
	S40,187.046,40,176z M512,492V336c0-11.046-8.954-20-20-20s-20,8.954-20,20v136h-84.721l12.262-11.281
	c8.129-7.479,8.656-20.131,1.178-28.26s-20.13-8.656-28.26-1.178l-50,46c-6.065,5.58-8.086,14.309-5.092,21.986
	C320.361,506.945,327.759,512,336,512h156C503.046,512,512,503.046,512,492z"/>
<g>
</g>
<g>
</g>
<g>
</g>
<g>
</g>
<g>
</g>
<g>
</g>
<g>
</g>
<g>
</g>
<g>
</g>
<g>
</g>
<g>
</g>
<g>
</g>
<g>
</g>
<g>
</g>
<g>
</g>
</svg>
